# xmcd
# 
# Track frame offsets:
#     150
#     27000
#     45472
#     64387
#     90332
#     123662
#     145237
#     167247
#     186810
#     214860
#     233847
# 
# Disc length: 3428
# 
# Revision: 37
# Processed by: cddbd v1.5.2PL0 Copyright (c) Steve Scherf et al.
# Submitted via: fre:ac v1.0.17
# 
DISCID=970d620b
DTITLE=Ozzy Osbourne - No More Tears (ZK_46795)
DYEAR=1991
DGENRE=Heavy Metal
TTITLE0=Mr. Tinkertrain
TTITLE1=I Don't Want To Change The World
TTITLE2=Mama, I'm Coming Home
TTITLE3=Desire
TTITLE4=No More Tears
TTITLE5=S.I.N.
TTITLE6=Hellraiser
TTITLE7=Time After Time
TTITLE8=Zombie Stomp
TTITLE9=A.V.H.
TTITLE10=Road To Nowhere
EXTD=
EXTT0=
EXTT1=
EXTT2=
EXTT3=
EXTT4=
EXTT5=
EXTT6=
EXTT7=
EXTT8=
EXTT9=
EXTT10=
PLAYORDER=
